<svg xmlns="http://www.w3.org/2000/svg" xmlns:xlink="http://www.w3.org/1999/xlink" version="1" x="0px" y="0px" viewBox="0 0 100 125" xml:space="preserve">
    <polygon points="14,38 18,38 17,45 25,42 26,47 19,48 24,54 20,57   16,50 12,57 8,54 13,48 6,47 7,42 14,45 " />
    <polygon points="36,38 40,38 40,45 47,42 48,47 41,48 46,54 42,57   38,50 34,57 30,54 36,48 28,47 30,42 37,45 " />
    <polygon points="58,38 63,38 62,45 69,42 71,47 63,48 68,54 64,57   60,50 56,57 53,54 58,48 50,47 52,42 59,45 " />
</svg>
